<svg width="36" height="33" viewBox="0 0 36 33" fill="none" xmlns="http://www.w3.org/2000/svg">
<path d="M26.4688 6.34552e-05C21.2188 0.0193994 17 4.47955 17 9.8936V14.4375H3C1.34375 14.4375 0 15.8233 0 17.5313V29.9063C0 31.6143 1.34375 33 3 33H25C26.6562 33 28 31.6143 28 29.9063V17.5313C28 15.8233 26.6562 14.4375 25 14.4375H22V9.85493C22 7.30259 23.9812 5.18209 26.4562 5.1563C28.9562 5.13052 31 7.22525 31 9.79692V14.9532C31 15.8104 31.6688 16.5 32.5 16.5H34.5C35.3312 16.5 36 15.8104 36 14.9532V9.79692C36 4.38287 31.7188 -0.0192724 26.4688 6.34552e-05Z" fill="black"/>
</svg>
