<svg width="64" height="64" viewBox="0 0 64 64" fill="none" xmlns="http://www.w3.org/2000/svg">
<path d="M64 32C64 49.6731 49.6731 64 32 64C14.3269 64 0 49.6731 0 32C0 14.3269 14.3269 0 32 0C49.6731 0 64 14.3269 64 32Z" fill="url(#paint0_linear)"/>
<path d="M43.6208 20.4002H43.2208C34.3728 20.4002 27.2 27.5729 27.2 36.4209C27.2 36.6304 27.3699 36.8002 27.5793 36.8002H27.9793C36.8273 36.8002 44.0001 29.6275 44.0001 20.7795C44.0001 20.57 43.8302 20.4002 43.6208 20.4002Z" fill="white"/>
<path d="M16.8 37.6683V20.9831C16.8 17.7893 19.3891 15.2002 22.5829 15.2002C22.7765 15.2002 22.9334 15.3571 22.9334 15.5507V39.6038C22.9334 40.4118 23.5884 41.0669 24.3964 41.0669H43.0136C46.2094 41.0669 48.8 43.6575 48.8 46.8533C48.8 47.0449 48.6447 47.2002 48.4531 47.2002H26.332C21.0676 47.2002 16.8 42.9326 16.8 37.6683Z" fill="white"/>
<defs>
<linearGradient id="paint0_linear" x1="13.5467" y1="3.62667" x2="50.4533" y2="60.16" gradientUnits="userSpaceOnUse">
<stop stop-color="#7AE394"/>
<stop offset="1" stop-color="#48DBC8"/>
</linearGradient>
</defs>
</svg>
