<svg width="28" height="34" viewBox="0 0 28 34" fill="none" xmlns="http://www.w3.org/2000/svg">
<path d="M25 14.9375H23.5V10.2969C23.5 4.8957 19.2375 0.5 14 0.5C8.7625 0.5 4.5 4.8957 4.5 10.2969V14.9375H3C1.34375 14.9375 0 16.3232 0 18.0312V30.4062C0 32.1143 1.34375 33.5 3 33.5H25C26.6562 33.5 28 32.1143 28 30.4062V18.0312C28 16.3232 26.6562 14.9375 25 14.9375ZM18.5 14.9375H9.5V10.2969C9.5 7.73809 11.5188 5.65625 14 5.65625C16.4813 5.65625 18.5 7.73809 18.5 10.2969V14.9375Z" fill="black"/>
</svg>
