<svg width="64" height="64" viewBox="0 0 64 64" fill="none" xmlns="http://www.w3.org/2000/svg">
<circle cx="32" cy="32" r="30" stroke="#6D65CF" stroke-width="3.90094" stroke-linecap="round" stroke-linejoin="round"/>
<path d="M23.6443 3.20843L21.9329 13.6782M21.9329 13.6782L26.1611 14.6849M21.9329 13.6782L10.4564 11.1615L14.9866 19.7185M26.1611 14.6849L21.9329 25.1547M26.1611 14.6849L32.4027 26.6648M26.1611 14.6849L30.0294 10.6581M38.7331 22.4366L49.9195 27.3695M38.7331 22.4366L32.4027 26.6648M38.7331 22.4366L36.9711 28.3762M38.7331 22.4366L46.9085 19.4165M38.7331 22.4366L38.81 16.799M32 43.5776L40.2551 46.6984L47.2014 43.1749M32 43.5776L23.9463 46.5977M32 43.5776L27.1678 30.7923M32 43.5776L42.9732 37.1346M32 43.5776L36.9711 28.3762M32 43.5776V62.0004M47.2014 43.1749L58.0739 46.799M47.2014 43.1749L55.5571 34.7185M47.2014 43.1749L42.9732 37.1346M55.5571 34.7185L60.792 40.3561M55.5571 34.7185L60.6913 23.3427M55.5571 34.7185L49.9195 27.3695M49.9195 27.3695L58.9799 18.9131M49.9195 27.3695L42.9732 37.1346M57.1678 15.6917L46.9085 19.4165M27.1678 30.7923L21.9329 25.1547M27.1678 30.7923L32.4027 26.6648M27.1678 30.7923L22.3356 37.2353M21.9329 25.1547L14.9866 19.7185M21.9329 25.1547L12.6712 34.2151M14.9866 19.7185L7.0336 28.0742M7.0336 28.0742L3.10742 23.9467M7.0336 28.0742L12.6712 34.2151M12.6712 34.2151L3.20809 40.2554M12.6712 34.2151L15.9933 43.5776M12.6712 34.2151L22.3356 37.2353M15.9933 43.5776L6.02688 47.2017M15.9933 43.5776L23.9463 46.5977M23.9463 46.5977L22.3356 37.2353M42.9732 37.1346L36.9711 28.3762M38.7331 13.6782L38.443 2.70508L30.0294 10.6581M38.7331 13.6782L46.5974 12.1682M38.7331 13.6782L38.81 16.799M53.0403 10.6581L46.5974 12.1682M46.5974 12.1682L46.9085 19.4165M38.81 16.799L30.0294 10.6581" stroke="#6D65CF" stroke-width="1.95047" stroke-linecap="round" stroke-linejoin="round"/>
</svg>
