<svg width="114" height="40" viewBox="0 0 114 40" fill="none" xmlns="http://www.w3.org/2000/svg">
<ellipse cx="19.9004" cy="20.0003" rx="18.2157" ry="18.3099" stroke="url(#paint0_linear)" stroke-width="2.34305" stroke-linecap="round" stroke-linejoin="round"/>
<path d="M14.8269 2.42733L13.7877 8.81735M13.7877 8.81735L16.355 9.43177M13.7877 8.81735L6.81929 7.28129L9.56999 12.5039M16.355 9.43177L13.7877 15.8218M16.355 9.43177L20.1449 16.7434M16.355 9.43177L18.7038 6.97407M23.9886 14.1628L30.7809 17.1735M23.9886 14.1628L20.1449 16.7434M23.9886 14.1628L22.9188 17.7879M23.9886 14.1628L28.9527 12.3196M23.9886 14.1628L24.0353 10.7221M19.9004 27.0658L24.9128 28.9705L29.1305 26.82M19.9004 27.0658L15.0103 28.909M19.9004 27.0658L16.9663 19.2626M19.9004 27.0658L26.5632 23.1334M19.9004 27.0658L22.9188 17.7879M19.9004 27.0658V38.3097M29.1305 26.82L35.7322 29.0319M29.1305 26.82L34.204 21.6588M29.1305 26.82L26.5632 23.1334M34.204 21.6588L37.3826 25.0996M34.204 21.6588L37.3215 14.7158M34.204 21.6588L30.7809 17.1735M30.7809 17.1735L36.2823 12.0124M30.7809 17.1735L26.5632 23.1334M35.182 10.0462L28.9527 12.3196M16.9663 19.2626L13.7877 15.8218M16.9663 19.2626L20.1449 16.7434M16.9663 19.2626L14.0322 23.1949M13.7877 15.8218L9.56999 12.5039M13.7877 15.8218L8.16408 21.3516M9.56999 12.5039L4.74099 17.6036M4.74099 17.6036L2.35706 15.0845M4.74099 17.6036L8.16408 21.3516M8.16408 21.3516L2.41818 25.0382M8.16408 21.3516L10.1813 27.0658M8.16408 21.3516L14.0322 23.1949M10.1813 27.0658L4.12973 29.2777M10.1813 27.0658L15.0103 28.909M15.0103 28.909L14.0322 23.1949M26.5632 23.1334L22.9188 17.7879M23.9886 8.81735L23.8125 2.12012L18.7038 6.97407M23.9886 8.81735L28.7637 7.89571M23.9886 8.81735L24.0353 10.7221M32.6758 6.97407L28.7637 7.89571M28.7637 7.89571L28.9527 12.3196M24.0353 10.7221L18.7038 6.97407" stroke="url(#paint1_linear)" stroke-width="1.17153" stroke-linecap="round" stroke-linejoin="round"/>
<path d="M111.279 13.7747H113.706V17.823C113.117 18.191 112.529 18.559 111.793 18.7798C111.058 19.0006 110.323 19.0743 109.587 19.0743C108.558 19.0743 107.602 18.8534 106.793 18.4118C105.984 17.9702 105.322 17.3813 104.88 16.5717C104.439 15.762 104.145 14.8788 104.145 13.9219C104.145 12.965 104.366 12.0818 104.88 11.2721C105.322 10.4624 105.984 9.8736 106.866 9.43197C107.675 8.99035 108.631 8.76953 109.661 8.76953C110.543 8.76953 111.426 8.91675 112.161 9.21116C112.897 9.50557 113.485 9.9472 114 10.536L112.235 12.1554C111.573 11.4193 110.764 11.0513 109.881 11.0513C109.073 11.0513 108.337 11.2721 107.822 11.7873C107.307 12.3026 107.087 12.965 107.087 13.8483C107.087 14.3635 107.234 14.8788 107.454 15.3204C107.675 15.762 108.043 16.0564 108.411 16.3509C108.852 16.5717 109.293 16.7189 109.881 16.7189C110.396 16.7189 110.911 16.6453 111.352 16.4245V13.7747H111.279Z" fill="#3F4244"/>
<path d="M102.38 9.06392V18.8534H100.027L95.6878 13.6274V18.8534H92.9668V9.06392H95.32L99.6592 14.2899V9.06392H102.38Z" fill="#3F4244"/>
<path d="M90.7605 9.06392H87.9658V18.927H90.7605V9.06392Z" fill="#3F4244"/>
<path d="M76.0521 9.06392H80.6853C81.7885 9.06392 82.7445 9.28475 83.5534 9.65276C84.3625 10.0208 85.0243 10.6096 85.4657 11.3457C85.9068 12.0817 86.1274 12.965 86.1274 13.9219C86.1274 14.8787 85.9068 15.762 85.4657 16.4981C85.0243 17.2341 84.3625 17.8229 83.5534 18.191C82.7445 18.559 81.7885 18.7798 80.6853 18.7798H76.0521V9.06392ZM80.6193 16.5717C81.4282 16.5717 82.1562 16.4244 82.6711 15.9092C83.1859 15.4676 83.4065 14.8051 83.4065 13.9219C83.4065 13.1122 83.1859 12.4498 82.6711 11.9345C82.1562 11.4929 81.4942 11.1985 80.6119 11.1985H78.8467V16.5717H80.6193Z" fill="#3F4244"/>
<path d="M73.846 9.06392V18.8534H71.5663L67.2271 13.6274V18.8534H64.5061V9.06392H66.7859L71.1248 14.2899V9.06392H73.846Z" fill="#3F4244"/>
<path d="M62.2998 9.06392H59.5051V18.927H62.2998V9.06392Z" fill="#3F4244"/>
<path d="M58.1811 9.06392L55.0188 18.8534H52.0036L50.165 12.8914L48.1795 18.8534H45.164L42.002 9.06392H44.87L46.8557 15.3204L48.9149 9.06392H51.4887L53.4744 15.394L55.5336 9.06392H58.1811Z" fill="#3F4244"/>
<path d="M82.3634 29.1384V31.3465H74.4209V21.4833H82.1428V23.6179H77.2153V25.3109H81.5545V27.3717H77.2153V29.1384H82.3634Z" fill="#3F4244"/>
<path d="M72.4349 29.1384V31.3465H64.5659V21.4833H72.2143V23.6179H67.2871V25.3109H71.626V27.3717H67.2871V29.1384H72.4349Z" fill="#3F4244"/>
<path d="M58.1679 28.6967H56.6236V31.2727H53.829V21.4833H58.315C59.1976 21.4833 60.0065 21.6306 60.5948 21.925C61.2568 22.2194 61.7716 22.661 62.1394 23.1763C62.5071 23.6915 62.654 24.354 62.654 25.09C62.654 25.8259 62.5071 26.415 62.1394 26.9303C61.9185 27.5191 61.4774 27.8869 60.8156 28.255L62.9482 31.3465H60.0065L58.1679 28.6967ZM59.933 25.09C59.933 24.6483 59.7859 24.2804 59.4916 24.0595C59.1976 23.8387 58.7564 23.6915 58.1679 23.6915H56.6236V26.5621H58.2416C58.8299 26.5621 59.271 26.415 59.5653 26.194C59.7859 25.8998 59.933 25.6052 59.933 25.09Z" fill="#3F4244"/>
<path d="M46.8423 23.6915H43.8271V21.4833H52.5786V23.6915H49.5635V31.3465H46.8423V23.6915Z" fill="#3F4244"/>
<defs>
<linearGradient id="paint0_linear" x1="9.39601" y1="3.76555" x2="30.557" y2="36.0131" gradientUnits="userSpaceOnUse">
<stop stop-color="#7AE394"/>
<stop offset="1" stop-color="#48DBC8"/>
</linearGradient>
<linearGradient id="paint1_linear" x1="9.77079" y1="4.17086" x2="30.9069" y2="35.5056" gradientUnits="userSpaceOnUse">
<stop stop-color="#7AE394"/>
<stop offset="1" stop-color="#48DBC8"/>
</linearGradient>
</defs>
</svg>
