<svg width="28" height="33" viewBox="0 0 28 33" fill="none" xmlns="http://www.w3.org/2000/svg">
<path d="M25 14.4375H23.5V9.79688C23.5 4.3957 19.2375 0 14 0C8.7625 0 4.5 4.3957 4.5 9.79688V14.4375H3C1.34375 14.4375 0 15.8232 0 17.5312V29.9062C0 31.6143 1.34375 33 3 33H25C26.6562 33 28 31.6143 28 29.9062V17.5312C28 15.8232 26.6562 14.4375 25 14.4375ZM18.5 14.4375H9.5V9.79688C9.5 7.23809 11.5188 5.15625 14 5.15625C16.4813 5.15625 18.5 7.23809 18.5 9.79688V14.4375Z" fill="#4a4a4a"/>
<circle cx="8" cy="24" r="2" fill="#C4C4C4"/>
<circle cx="14" cy="24" r="2" fill="#C4C4C4"/>
<circle cx="20" cy="24" r="2" fill="#C4C4C4"/>
</svg>
